<svg id="visual" viewBox="0 0 1080 1920" width="1080" height="1920" xmlns="http://www.w3.org/2000/svg" xmlns:xlink="http://www.w3.org/1999/xlink" version="1.1"><rect x="0" y="0" width="1080" height="1920" fill="#fff"></rect><defs><linearGradient id="grad1_0" x1="0%" y1="0%" x2="100%" y2="100%"><stop offset="30%" stop-color="#5d66f7" stop-opacity="1"></stop><stop offset="70%" stop-color="#5d66f7" stop-opacity="1"></stop></linearGradient></defs><defs><linearGradient id="grad1_1" x1="0%" y1="0%" x2="100%" y2="100%"><stop offset="30%" stop-color="#5d66f7" stop-opacity="1"></stop><stop offset="70%" stop-color="#ffffff" stop-opacity="1"></stop></linearGradient></defs><defs><linearGradient id="grad2_0" x1="0%" y1="0%" x2="100%" y2="100%"><stop offset="30%" stop-color="#5d66f7" stop-opacity="1"></stop><stop offset="70%" stop-color="#5d66f7" stop-opacity="1"></stop></linearGradient></defs><defs><linearGradient id="grad2_1" x1="0%" y1="0%" x2="100%" y2="100%"><stop offset="30%" stop-color="#ffffff" stop-opacity="1"></stop><stop offset="70%" stop-color="#5d66f7" stop-opacity="1"></stop></linearGradient></defs><g transform="translate(1080, 0)"><path d="M0 972C-202.9 965.5 -405.7 959.1 -486 841.8C-566.3 724.5 -524 496.3 -584.6 337.5C-645.1 178.7 -808.6 89.4 -972 0L0 0Z" fill="#bab0fd"></path><path d="M0 486C-101.4 482.8 -202.9 479.5 -243 420.9C-283.1 362.2 -262 248.1 -292.3 168.8C-322.6 89.4 -404.3 44.7 -486 0L0 0Z" fill="#5d66f7"></path></g><g transform="translate(0, 1920)"><path d="M0 -972C87.2 -804.9 174.5 -637.7 333.5 -577.6C492.5 -517.5 723.4 -564.4 841.8 -486C960.2 -407.6 966.1 -203.8 972 0L0 0Z" fill="#bab0fd"></path><path d="M0 -486C43.6 -402.4 87.2 -318.9 166.7 -288.8C246.3 -258.8 361.7 -282.2 420.9 -243C480.1 -203.8 483 -101.9 486 0L0 0Z" fill="#5d66f7"></path></g></svg>