<svg id="visual" viewBox="0 0 1920 1080" width="1920" height="1080" xmlns="http://www.w3.org/2000/svg" xmlns:xlink="http://www.w3.org/1999/xlink" version="1.1"><rect x="0" y="0" width="1920" height="1080" fill="#fff"></rect><defs><linearGradient id="grad1_0" x1="43.8%" y1="0%" x2="100%" y2="100%"><stop offset="14.444444444444446%" stop-color="#5d66f7" stop-opacity="1"></stop><stop offset="85.55555555555554%" stop-color="#5d66f7" stop-opacity="1"></stop></linearGradient></defs><defs><linearGradient id="grad1_1" x1="43.8%" y1="0%" x2="100%" y2="100%"><stop offset="14.444444444444446%" stop-color="#5d66f7" stop-opacity="1"></stop><stop offset="85.55555555555554%" stop-color="#ffffff" stop-opacity="1"></stop></linearGradient></defs><defs><linearGradient id="grad2_0" x1="0%" y1="0%" x2="56.3%" y2="100%"><stop offset="14.444444444444446%" stop-color="#5d66f7" stop-opacity="1"></stop><stop offset="85.55555555555554%" stop-color="#5d66f7" stop-opacity="1"></stop></linearGradient></defs><defs><linearGradient id="grad2_1" x1="0%" y1="0%" x2="56.3%" y2="100%"><stop offset="14.444444444444446%" stop-color="#ffffff" stop-opacity="1"></stop><stop offset="85.55555555555554%" stop-color="#5d66f7" stop-opacity="1"></stop></linearGradient></defs><g transform="translate(1920, 0)"><path d="M0 972C-117.6 857.5 -235.3 743.1 -390.5 676.4C-545.7 609.7 -738.6 590.8 -841.8 486C-945 381.2 -958.5 190.6 -972 0L0 0Z" fill="#bab0fd"></path><path d="M0 486C-58.8 428.8 -117.6 371.5 -195.2 338.2C-272.9 304.8 -369.3 295.4 -420.9 243C-472.5 190.6 -479.2 95.3 -486 0L0 0Z" fill="#5d66f7"></path></g><g transform="translate(0, 1080)"><path d="M0 -972C192.6 -959.6 385.2 -947.2 486 -841.8C586.8 -736.3 595.9 -537.8 661.6 -382C727.4 -226.2 849.7 -113.1 972 0L0 0Z" fill="#bab0fd"></path><path d="M0 -486C96.3 -479.8 192.6 -473.6 243 -420.9C293.4 -368.2 298 -268.9 330.8 -191C363.7 -113.1 424.8 -56.5 486 0L0 0Z" fill="#5d66f7"></path></g></svg>