<svg width="1145" height="242" viewBox="0 0 1145 242" fill="none" xmlns="http://www.w3.org/2000/svg">
<mask id="mask0_25_400" style="mask-type:luminance" maskUnits="userSpaceOnUse" x="0" y="83" width="454" height="74">
<path d="M453.009 83.4995H0V156.442H453.009V83.4995Z" fill="white"/>
</mask>
<g mask="url(#mask0_25_400)">
<path d="M25.2843 98.9514C30.2781 98.9514 34.1921 100.151 37.0414 102.551C39.9207 104.95 41.3604 108.234 41.3604 112.388C41.3604 116.587 39.9207 119.886 37.0414 122.286C34.1921 124.655 30.2781 125.825 25.2843 125.825H14.7269V138.242H10.5879V98.9514H25.2843ZM25.1643 122.166C29.0334 122.166 32.0027 121.326 34.0422 119.646C36.1116 117.937 37.1614 115.507 37.1614 112.388C37.1614 109.239 36.1116 106.809 34.0422 105.13C32.0027 103.42 29.0334 102.551 25.1643 102.551H14.7269V122.166H25.1643Z" fill="black"/>
<path d="M73.2306 138.542C70.3813 138.542 67.832 137.912 65.5525 136.622C63.2731 135.303 61.4735 133.503 60.1538 131.223C58.8342 128.944 58.1743 126.365 58.1743 123.485C58.1743 120.606 58.8342 118.027 60.1538 115.747C61.4735 113.468 63.2731 111.698 65.5525 110.409C67.832 109.134 70.3813 108.489 73.2306 108.489C76.0649 108.489 78.6293 109.134 80.9088 110.409C83.1882 111.698 84.9578 113.468 86.2475 115.747C87.5671 118.027 88.227 120.606 88.227 123.485C88.227 126.365 87.5671 128.944 86.2475 131.223C84.9578 133.503 83.1882 135.303 80.9088 136.622C78.6293 137.912 76.0649 138.542 73.2306 138.542ZM73.2306 135.003C75.3001 135.003 77.1897 134.523 78.8693 133.563C80.5488 132.603 81.8385 131.253 82.7683 129.484C83.6831 127.729 84.148 125.735 84.148 123.485C84.148 121.251 83.6831 119.256 82.7683 117.487C81.8385 115.732 80.5488 114.368 78.8693 113.408C77.1897 112.448 75.3001 111.968 73.2306 111.968C71.1012 111.968 69.2116 112.448 67.532 113.408C65.8824 114.368 64.5927 115.732 63.633 117.487C62.6732 119.256 62.1933 121.251 62.1933 123.485C62.1933 125.735 62.6732 127.729 63.633 129.484C64.5927 131.253 65.8824 132.603 67.532 133.563C69.2116 134.523 71.1012 135.003 73.2306 135.003Z" fill="black"/>
<path d="M150.8 108.729L139.643 138.242H135.864L126.566 114.068L117.268 138.242H113.489L102.332 108.729H106.171L115.469 133.803L124.947 108.729H128.366L137.783 133.803L147.141 108.729H150.8Z" fill="black"/>
<path d="M193.63 124.685H168.976C169.171 127.774 170.326 130.264 172.455 132.183C174.615 134.073 177.314 135.003 180.553 135.003C182.383 135.003 184.062 134.688 185.592 134.043C187.152 133.368 188.486 132.393 189.611 131.104L191.83 133.683C190.541 135.243 188.906 136.442 186.912 137.282C184.947 138.122 182.788 138.542 180.433 138.542C177.434 138.542 174.75 137.912 172.395 136.622C170.071 135.303 168.256 133.503 166.937 131.223C165.617 128.944 164.957 126.365 164.957 123.485C164.957 120.606 165.572 118.027 166.817 115.747C168.091 113.468 169.816 111.698 171.975 110.409C174.165 109.134 176.654 108.489 179.413 108.489C182.128 108.489 184.572 109.134 186.732 110.409C188.921 111.698 190.631 113.468 191.83 115.747C193.06 117.997 193.69 120.576 193.69 123.485L193.63 124.685ZM179.413 111.908C176.534 111.908 174.135 112.838 172.215 114.668C170.296 116.467 169.216 118.837 168.976 121.746H189.911C189.626 118.837 188.531 116.467 186.612 114.668C184.692 112.838 182.293 111.908 179.413 111.908Z" fill="black"/>
<path d="M216.76 114.488C217.719 112.493 219.114 110.993 220.959 109.989C222.788 108.999 225.098 108.489 227.857 108.489V112.388L226.897 112.328C223.778 112.328 221.333 113.288 219.579 115.207C217.809 117.097 216.94 119.751 216.94 123.185V138.242H212.98V108.729H216.76V114.488Z" fill="black"/>
<path d="M272.284 124.685H247.63C247.825 127.774 248.98 130.264 251.109 132.183C253.269 134.073 255.968 135.003 259.208 135.003C261.037 135.003 262.717 134.688 264.246 134.043C265.806 133.368 267.141 132.393 268.265 131.104L270.485 133.683C269.195 135.243 267.56 136.442 265.566 137.282C263.601 138.122 261.442 138.542 259.088 138.542C256.088 138.542 253.404 137.912 251.05 136.622C248.725 135.303 246.911 133.503 245.591 131.223C244.271 128.944 243.611 126.365 243.611 123.485C243.611 120.606 244.226 118.027 245.471 115.747C246.746 113.468 248.47 111.698 250.63 110.409C252.819 109.134 255.308 108.489 258.068 108.489C260.782 108.489 263.227 109.134 265.386 110.409C267.575 111.698 269.285 113.468 270.485 115.747C271.714 117.997 272.344 120.576 272.344 123.485L272.284 124.685ZM258.068 111.908C255.188 111.908 252.789 112.838 250.87 114.668C248.95 116.467 247.87 118.837 247.63 121.746H268.565C268.28 118.837 267.186 116.467 265.266 114.668C263.347 112.838 260.947 111.908 258.068 111.908Z" fill="black"/>
<path d="M318.569 96.552V138.242H314.73V132.423C313.531 134.388 311.941 135.902 309.991 136.982C308.027 138.032 305.808 138.542 303.333 138.542C300.574 138.542 298.069 137.912 295.835 136.622C293.586 135.347 291.831 133.563 290.556 131.283C289.267 129.004 288.637 126.41 288.637 123.485C288.637 120.576 289.267 117.967 290.556 115.687C291.831 113.408 293.586 111.653 295.835 110.409C298.069 109.134 300.574 108.489 303.333 108.489C305.733 108.489 307.892 108.999 309.812 109.989C311.761 110.993 313.351 112.433 314.55 114.308V96.552H318.569ZM303.693 135.003C305.733 135.003 307.592 134.523 309.272 133.563C310.951 132.603 312.241 131.253 313.171 129.484C314.13 127.729 314.61 125.735 314.61 123.485C314.61 121.251 314.13 119.256 313.171 117.487C312.241 115.732 310.951 114.368 309.272 113.408C307.592 112.448 305.733 111.968 303.693 111.968C301.564 111.968 299.674 112.448 297.994 113.408C296.345 114.368 295.055 115.732 294.095 117.487C293.136 119.256 292.656 121.251 292.656 123.485C292.656 125.735 293.136 127.729 294.095 129.484C295.055 131.253 296.345 132.603 297.994 133.563C299.674 134.523 301.564 135.003 303.693 135.003Z" fill="black"/>
<path d="M381.817 108.489C384.606 108.489 387.126 109.134 389.375 110.409C391.61 111.653 393.364 113.408 394.654 115.687C395.928 117.967 396.573 120.576 396.573 123.485C396.573 126.41 395.928 129.004 394.654 131.283C393.364 133.563 391.61 135.347 389.375 136.622C387.126 137.912 384.606 138.542 381.817 138.542C379.373 138.542 377.153 138.032 375.159 136.982C373.194 135.902 371.619 134.388 370.42 132.423V138.242H366.641V96.552H370.6V114.308C371.829 112.433 373.419 110.993 375.338 109.989C377.258 108.999 379.417 108.489 381.817 108.489ZM381.577 135.003C383.616 135.003 385.476 134.523 387.156 133.563C388.835 132.603 390.155 131.253 391.115 129.484C392.074 127.729 392.554 125.735 392.554 123.485C392.554 121.251 392.074 119.256 391.115 117.487C390.155 115.732 388.835 114.368 387.156 113.408C385.476 112.448 383.616 111.968 381.577 111.968C379.447 111.968 377.558 112.448 375.878 113.408C374.229 114.368 372.939 115.732 371.979 117.487C371.02 119.256 370.54 121.251 370.54 123.485C370.54 125.735 371.02 127.729 371.979 129.484C372.939 131.253 374.229 132.603 375.878 133.563C377.558 134.523 379.447 135.003 381.577 135.003Z" fill="black"/>
<path d="M440.595 108.729L425.839 141.781C424.639 144.54 423.259 146.49 421.7 147.659C420.14 148.814 418.236 149.399 416.001 149.399C414.591 149.399 413.272 149.174 412.042 148.739C410.797 148.289 409.748 147.614 408.863 146.7L410.662 143.76C412.177 145.23 413.977 145.98 416.061 145.98C417.411 145.98 418.58 145.59 419.54 144.84C420.5 144.12 421.37 142.861 422.18 141.061L423.499 138.182L410.302 108.729H414.441L425.599 133.803L436.696 108.729H440.595Z" fill="black"/>
</g>
<mask id="mask1_25_400" style="mask-type:luminance" maskUnits="userSpaceOnUse" x="515" y="0" width="630" height="242">
<path d="M1145 0H515.394V241.861H1145V0Z" fill="white"/>
</mask>
<g mask="url(#mask1_25_400)">
<path d="M772.868 85.7517H788.584V153.715H772.868V85.7517Z" fill="black"/>
<path d="M848.694 127.022L839.576 136.559V153.715H823.92V85.7517H839.576V117.484L869.629 85.7517H887.144L858.951 116.044L888.764 153.715H870.409L848.694 127.022Z" fill="black"/>
<path d="M959.709 139.139H928.157L922.158 153.715H906.022L936.315 85.7517H951.851L982.263 153.715H965.767L959.709 139.139ZM954.79 127.202L943.993 101.228L933.195 127.202H954.79Z" fill="black"/>
<path d="M1051.83 153.715L1038.7 134.76H1024.24V153.715H1008.52V85.7518H1037.98C1043.98 85.7518 1049.19 86.7715 1053.63 88.811C1058.07 90.8205 1061.46 93.6548 1063.83 97.3289C1066.23 101.018 1067.43 105.367 1067.43 110.406C1067.43 115.49 1066.2 119.853 1063.77 123.483C1061.37 127.127 1057.92 129.931 1053.45 131.88L1068.69 153.715H1051.83ZM1051.53 110.406C1051.53 106.612 1050.29 103.687 1047.81 101.648C1045.37 99.6084 1041.79 98.5886 1037.08 98.5886H1024.24V122.283H1037.08C1041.79 122.283 1045.37 121.248 1047.81 119.164C1050.29 117.094 1051.53 114.17 1051.53 110.406Z" fill="black"/>
<path d="M1099.08 85.7518H1114.79V153.715H1099.08V85.7518Z" fill="black"/>
<mask id="mask2_25_400" style="mask-type:luminance" maskUnits="userSpaceOnUse" x="517" y="1" width="221" height="240">
<path d="M517.133 1.96454H737.339V240.391H517.133V1.96454Z" fill="white"/>
</mask>
<g mask="url(#mask2_25_400)">
<mask id="mask3_25_400" style="mask-type:luminance" maskUnits="userSpaceOnUse" x="515" y="0" width="224" height="242">
<path d="M738.06 0H515.394V241.861H738.06V0Z" fill="white"/>
</mask>
<g mask="url(#mask3_25_400)">
<mask id="mask4_25_400" style="mask-type:luminance" maskUnits="userSpaceOnUse" x="517" y="61" width="175" height="179">
<path d="M517.133 61.425H691.991V239.926H517.133V61.425Z" fill="white"/>
</mask>
<g mask="url(#mask4_25_400)">
<path d="M604.472 90.038H691.9V65.0391H604.472C580.373 65.0391 559.798 73.617 542.747 90.6679C525.696 107.719 517.118 128.294 517.118 152.483V239.821H542.117V152.483C542.117 135.147 548.161 120.526 560.353 108.349C572.53 96.1715 587.241 90.038 604.472 90.038Z" fill="black"/>
</g>
<mask id="mask5_25_400" style="mask-type:luminance" maskUnits="userSpaceOnUse" x="561" y="1" width="177" height="180">
<path d="M561.462 1.96454H737.339V180.436H561.462V1.96454Z" fill="white"/>
</mask>
<g mask="url(#mask5_25_400)">
<path d="M650.497 151.838H563.143V176.747H650.497C674.671 176.747 695.246 168.274 712.207 151.208C729.347 134.157 737.835 113.582 737.835 89.4081V2.0545H712.836V89.4081C712.836 106.639 706.793 121.35 694.616 133.527C682.439 145.704 667.727 151.838 650.497 151.838Z" fill="#F46530"/>
</g>
<mask id="mask6_25_400" style="mask-type:luminance" maskUnits="userSpaceOnUse" x="711" y="138" width="27" height="101">
<path d="M711.186 138.206H737.34V238.022H711.186V138.206Z" fill="white"/>
</mask>
<g mask="url(#mask6_25_400)">
<path fill-rule="evenodd" clip-rule="evenodd" d="M712.835 237.932H737.834V142.015C733.59 148.869 728.446 155.272 722.403 161.406C719.328 164.48 716.179 167.269 712.835 169.893V237.932Z" fill="black"/>
</g>
<mask id="mask7_25_400" style="mask-type:luminance" maskUnits="userSpaceOnUse" x="514" y="0" width="28" height="100">
<path d="M541.153 99.8156H515V-2.57492e-05H541.153V99.8156Z" fill="white"/>
</mask>
<g mask="url(#mask7_25_400)">
<path fill-rule="evenodd" clip-rule="evenodd" d="M539.504 0.0899448H514.506V96.0065C518.749 89.1532 523.893 82.7497 529.937 76.6162C533.011 73.542 536.16 70.7527 539.504 68.1283V0.0899448Z" fill="#F46530"/>
</g>
</g>
</g>
</g>
</svg>
