<svg width="1000" height="1000" viewBox="0 0 1000 1000" fill="none" xmlns="http://www.w3.org/2000/svg">
<g clip-path="url(#clip0_39_2913)">
<mask id="mask0_39_2913" style="mask-type:alpha" maskUnits="userSpaceOnUse" x="0" y="0" width="1000" height="1000">
<circle cx="500" cy="500" r="500" fill="white"/>
</mask>
<g mask="url(#mask0_39_2913)">
<path d="M771.569 909.804C769.281 911.438 766.667 913.072 764.379 914.706C761.765 916.34 759.477 917.973 756.863 919.281C754.575 920.588 752.615 921.895 750.327 923.202C750 923.529 749.673 923.529 749.347 923.856C741.83 928.431 733.987 932.679 726.144 936.601C723.856 937.908 721.242 939.215 718.954 940.196C718.954 940.196 718.628 940.523 718.301 940.523C715.686 941.83 713.072 943.137 710.458 944.444C705.229 947.059 699.673 949.346 694.445 951.634C691.83 952.941 688.889 953.921 686.275 954.902C683.66 955.882 680.719 957.189 678.105 958.17C675.49 959.15 672.549 960.457 669.935 961.438C669.935 961.438 669.935 961.438 669.608 961.438C666.994 962.418 664.052 963.398 661.438 964.379C655.556 966.34 649.347 968.3 643.464 970.261C641.503 970.915 639.216 971.568 637.255 972.222C631.046 974.183 624.837 975.817 618.628 977.124C616.34 977.777 614.053 978.104 611.438 978.758C605.556 980.065 599.347 981.372 593.464 982.679C592.157 983.006 591.177 983.006 589.869 983.333C587.909 983.66 585.621 983.987 583.66 984.313C580.719 984.64 578.105 985.294 575.164 985.621C573.856 985.947 572.549 985.947 571.242 986.274C569.608 986.601 567.647 986.928 565.687 986.928C560.458 987.581 554.902 988.235 549.673 988.889C548.039 989.215 546.079 989.215 544.445 989.542H544.118C541.83 989.869 539.543 989.869 537.255 990.196C534.968 990.523 532.68 990.523 530.392 990.523C529.085 990.523 527.451 990.849 526.144 990.849C523.53 990.849 521.242 991.176 518.954 991.176C515.687 991.176 512.745 991.503 509.477 991.503C506.209 991.503 503.268 991.503 500 991.503C497.713 991.503 495.425 991.503 493.137 991.503C355.229 989.542 231.373 931.045 142.811 838.235C142.811 838.235 142.811 837.908 142.484 837.908C132.68 829.085 141.177 782.026 180.719 752.287C230.392 714.706 349.347 691.176 349.347 691.176C349.347 691.176 395.425 683.66 566.34 719.281C666.34 740.196 742.484 770.588 784.968 852.941C793.791 869.934 802.615 896.078 771.569 909.804Z" fill="white"/>
<path d="M567.321 715.686C630.066 728.431 697.059 742.157 748.693 783.66C766.013 797.713 777.451 818.301 786.928 838.235C791.504 848.039 796.079 858.17 799.674 868.954C801.634 876.144 804.576 884.314 802.942 892.811C802.615 895.098 800.654 898.039 799.02 899.673C791.504 907.19 783.334 911.765 775.164 917.647C727.125 950.98 671.896 974.51 614.706 986.928C487.255 1014.71 349.347 993.137 237.255 926.144C200 903.595 165.687 876.144 136.275 843.791C133.007 839.869 133.007 833.333 133.007 829.085C133.334 819.281 135.948 809.804 139.216 800.981C147.059 780.719 157.19 760.458 174.51 746.405C186.928 737.909 200.327 730.719 214.053 724.837C257.19 706.536 302.615 693.791 349.347 688.562C353.268 688.235 353.922 693.791 350 694.445C305.229 703.595 260.785 717.32 219.281 735.948C204.249 743.464 188.236 750 176.144 761.765C164.706 774.183 156.536 789.543 150 805.229C145.752 814.706 142.811 829.739 144.118 837.255C164.706 861.765 188.889 883.333 215.033 901.961C358.17 1001.96 575.491 1008.5 727.778 925.164C741.504 917.647 754.902 909.15 767.647 900.327C773.857 896.079 780.393 892.484 785.294 887.582C785.621 887.255 785.294 887.582 785.294 887.909C785.294 888.235 784.968 888.562 784.968 888.562C785.294 884.641 783.987 879.412 782.353 874.183C776.471 855.229 766.994 835.294 756.863 817.974C740.85 792.157 713.726 775.817 686.275 762.745C667.321 753.922 647.386 747.059 627.125 740.523C606.863 733.987 586.275 728.431 565.687 723.53C560.458 722.222 562.092 714.706 567.321 715.686Z" fill="black"/>
<path d="M811.438 956.863C804.902 914.053 791.83 871.569 775.163 831.7C766.994 812.419 754.575 793.791 737.255 782.353C728.431 776.798 718.628 772.549 708.497 768.301C698.366 764.379 687.909 760.785 677.778 757.19C676.144 756.536 674.837 755.229 674.51 753.595C673.203 747.059 671.569 740.85 669.608 734.314C661.111 707.843 651.961 678.432 627.124 663.072C608.17 651.634 603.595 648.039 581.699 647.059C577.451 647.059 564.379 644.771 560.458 645.425L549.673 645.752C549.347 645.752 528.105 639.216 527.778 638.889C513.072 633.987 515.36 635.294 498.366 630.719C447.386 618.954 398.693 607.843 341.83 611.765C300.654 622.549 265.033 636.928 245.425 669.608C242.157 674.837 240.523 680.066 241.177 685.948C241.83 692.484 244.118 699.674 242.484 706.536C241.83 709.477 241.177 712.745 239.869 715.36C237.255 718.955 233.007 721.242 229.739 723.53C212.745 734.641 195.425 744.445 179.085 755.883C173.53 759.804 168.301 763.399 164.379 768.955C152.941 785.294 146.079 804.902 143.137 824.51C137.909 864.379 143.137 904.902 137.909 944.772C132.026 984.641 116.667 1023.2 95.0982 1057.19C80.0655 1080.07 61.7649 1101.31 38.5622 1116.01L36.2747 1106.86H880.719L877.124 1115.03C867.32 1103.92 859.477 1091.83 852.288 1079.09C830.065 1041.83 816.994 999.673 811.438 956.863ZM821.242 955.556C824.837 983.334 831.699 1010.78 842.157 1036.93C852.615 1062.75 865.686 1087.91 883.987 1109.15C886.601 1112.09 884.314 1117.65 880.392 1117.32H35.9479C33.3335 1117.32 31.0459 1115.03 31.0459 1112.42C31.0459 1110.46 32.0263 1108.82 33.6603 1108.17C38.889 1105.23 44.1178 1100.98 49.0198 1096.73C91.8302 1058.17 118.628 1000.98 127.451 944.118C134.967 890.85 120.915 833.334 144.771 782.68C150.327 770.915 157.19 758.497 168.301 750.981C188.562 735.948 210.458 725.49 230.392 710.784C230.602 710.63 232.026 709.15 232.026 709.15C233.987 704.575 233.007 702.615 232.353 697.386C231.373 690.85 229.739 682.026 232.026 675.164C233.007 671.242 234.967 667.647 236.928 664.706C260.458 629.412 301.961 613.726 341.503 604.902C354.575 603.268 364.052 603.268 375.164 603.268C390.523 603.268 406.209 605.556 421.569 607.517C465.686 614.379 508.17 626.144 551.634 635.621L548.693 635.294C558.824 633.334 568.301 634.314 578.105 635.621C640.85 645.098 662.092 672.549 679.085 731.046C681.046 737.582 682.68 744.118 684.314 750.981L681.046 747.059C712.418 758.17 747.713 768.301 767.647 797.386C774.837 806.209 780.065 816.667 784.641 827.125C801.307 868.955 814.379 911.111 821.242 955.556Z" fill="black"/>
<path d="M816.339 956.209C810.13 907.843 782.679 826.47 766.012 804.575C747.711 780.718 740.195 773.202 679.084 752.614C675.816 736.274 663.724 695.097 649.345 677.777C627.45 644.771 567.646 637.254 549.672 641.176C549.672 641.176 452.94 607.189 341.502 607.189C306.208 615.032 265.358 631.045 243.136 664.705C228.104 686.928 245.097 694.117 237.581 714.379C235.62 719.607 189.868 745.751 171.241 761.437C162.744 768.3 153.267 785.62 146.731 808.169C133.659 854.248 147.711 917.973 131.371 973.529C99.9989 1080.72 36.2734 1112.74 36.2734 1112.74H880.718C880.064 1112.42 829.737 1058.17 816.339 956.209Z" fill="white"/>
<path d="M301.308 741.178C325.491 792.812 363.073 836.603 407.844 871.243C411.765 875.817 415.033 877.451 405.883 874.184C366.014 855.23 332.354 822.877 312.419 783.661C305.883 770.59 300.328 756.537 298.367 741.831C297.74 737.127 299.02 736.928 301.308 741.178Z" fill="black"/>
<path d="M684.64 753.268C678.104 808.823 665.032 858.497 622.548 893.791C620.916 895.425 616.014 897.059 616.014 897.059C616.014 897.059 618.301 894.771 619.282 893.791C628.759 884.64 636.275 875.492 643.464 864.381C658.497 842.812 667.647 817.322 671.896 791.505C673.856 778.76 676.47 767.974 678.104 753.269C679.738 746.732 684.313 746.732 684.64 753.268Z" fill="black"/>
<path d="M241.945 715.686C256.651 781.046 306.324 833.334 362.206 868.955C381.161 881.046 399.135 891.83 420.05 900.327C421.755 901.02 423.644 903.268 423.644 903.268C423.644 903.268 423.644 903.595 418.416 901.961C396.847 894.118 378.219 886.929 358.612 875.164C318.742 851.634 283.775 818.955 260.246 779.085C248.154 758.497 239.984 737.582 235.409 714.052C234.755 710.131 237.043 705.882 238.676 705.882C240.31 705.882 241.619 711.437 241.945 715.686Z" fill="black"/>
<path d="M773.529 949.674C773.529 949.674 791.83 1052.29 784.64 1112.42" stroke="black" stroke-width="3" stroke-miterlimit="10" stroke-linecap="round" stroke-linejoin="round"/>
<path d="M517.974 916.666C519.063 909.585 525.49 896.078 542.484 898.692C563.726 901.96 531.046 916.666 517.974 916.666ZM517.974 916.666C513.072 906.862 500 888.562 486.928 893.791C470.588 900.327 506.536 918.741 517.974 916.666Z" stroke="black" stroke-width="4" stroke-linecap="round"/>
<path d="M513.072 918.301C499.455 923.203 473.53 939.869 478.758 967.32C483.987 994.771 468.954 1015.8 460.784 1022.88" stroke="black" stroke-width="4" stroke-linecap="round"/>
<path d="M519.607 918.301C533.224 923.203 559.15 939.869 553.921 967.32C548.692 994.771 526.143 1035.4 534.313 1042.48" stroke="black" stroke-width="4" stroke-linecap="round"/>
<path d="M588.675 794.358C581.653 829.39 536.182 850.476 459.618 818.846C380.044 786.196 345.606 708.311 336.913 685.183C384.056 595.394 351.29 533.154 351.29 533.154C459.952 523.631 554.906 652.873 554.906 652.873L569.617 716.813C570.954 722.255 573.629 727.017 577.641 730.418C584.662 743.002 593.021 771.911 588.675 794.358Z" fill="white"/>
<path d="M335.243 686.204C341.596 676.34 345.608 664.777 348.282 653.553C353.298 630.085 354.969 606.278 355.304 582.47V573.627C354.301 564.784 351.292 555.602 347.948 547.439C343.602 536.555 359.316 529.753 364.331 540.637C365 541.997 365 544.378 365 545.738C366.003 591.993 368.009 651.512 339.255 689.945C337.249 691.985 333.237 688.924 335.243 686.204Z" fill="black"/>
<path d="M579.985 729.397C591.352 751.164 598.039 778.372 591.018 802.52C585.668 819.526 570.289 832.11 553.571 836.871C514.787 847.415 469.985 830.749 435.548 812.043C393.086 787.895 361.658 747.422 341.597 703.208C340.26 699.807 344.94 697.086 346.946 700.487C353.968 714.772 361.992 728.716 371.019 741.3C380.047 754.225 390.411 766.128 402.113 776.672C436.216 807.962 482.356 827.348 528.496 827.348C575.972 825.988 594.027 800.48 582.994 753.544C581.322 746.062 578.647 738.239 574.969 731.777C572.963 729.056 577.978 725.996 579.985 729.397Z" fill="black"/>
<path d="M709.375 320.926C715.393 349.495 710.712 368.541 708.038 447.447C705.363 524.992 683.296 634.507 656.214 662.056C635.485 682.802 568.95 699.128 509.771 683.823C479.68 676 454.27 658.314 433.541 645.73C407.462 629.745 384.726 580.429 366.003 548.799C351.292 523.971 352.629 553.901 333.572 532.474C307.158 503.225 275.396 444.386 291.11 340.312C316.52 171.618 447.917 151.891 545.212 170.597C643.175 189.303 693.326 245.762 709.375 320.926Z" fill="white"/>
<path d="M350.29 562.404C342.6 549.479 332.57 537.916 323.542 525.672C310.169 506.966 300.138 485.539 293.451 463.432C264.363 368.881 282.084 245.081 370.016 189.303C449.925 137.607 605.061 156.313 669.923 227.056C694.331 252.564 710.045 285.895 716.732 320.586C717.066 322.626 718.069 326.368 718.403 328.408C718.738 330.109 719.741 332.149 719.406 334.19C718.738 341.673 717.4 349.155 716.732 356.637C711.716 401.872 713.054 448.127 707.37 493.361C702.355 540.977 695.668 588.592 681.625 634.507C677.279 648.451 668.92 661.035 657.887 670.218C633.145 691.305 600.714 698.447 569.62 699.808C507.432 702.869 444.241 680.422 408.132 627.024C406.794 624.984 409.469 622.603 411.141 624.644C441.232 657.634 482.022 678.721 525.487 683.483C573.632 689.264 646.185 684.843 667.249 632.466C691.656 558.322 704.361 479.757 705.698 401.872C705.698 382.826 704.695 363.78 704.695 344.393C704.695 342.013 705.03 336.571 705.03 334.19C705.03 334.19 705.03 333.85 705.03 334.19C705.03 334.53 705.03 334.53 705.03 334.19C702.355 327.388 701.352 319.906 699.346 313.103C691.99 284.874 678.616 258.006 659.559 236.579C596.368 164.475 455.609 146.45 376.703 200.527C314.181 242.701 297.464 323.647 293.117 395.07C289.439 448.467 304.819 500.844 344.606 537.576L360.32 554.241C367.007 561.723 355.64 570.566 350.29 562.404Z" fill="black"/>
<path d="M389.744 454.247C389.744 454.247 379.38 403.231 330.565 409.353C288.438 414.795 273.727 517.508 369.349 546.077" fill="white"/>
<path d="M365 501.523C357.31 497.102 351.96 489.62 351.626 480.437C351.96 473.634 352.963 465.812 351.291 459.01C350.288 452.548 343.602 450.847 338.586 451.187C333.237 452.208 329.893 459.01 328.89 464.452C328.89 464.792 328.556 465.812 328.556 466.152C328.222 467.853 325.547 467.853 324.878 466.152C320.532 452.888 330.228 438.263 344.27 439.964C363.997 441.324 366.671 462.411 362.994 478.396C360.987 485.198 363.662 491.32 367.34 497.102L368.009 498.122C369.68 500.163 367.006 502.884 365 501.523Z" fill="black"/>
<path d="M388.071 454.589C380.381 434.522 363.664 415.476 341.263 415.816C339.257 415.476 335.913 416.156 333.907 416.156C328.223 416.497 323.543 418.537 319.196 422.619C297.798 444.386 301.476 482.818 318.862 506.966C324.88 515.468 332.57 522.951 341.263 529.073C349.956 535.195 359.652 539.956 370.017 544.038C372.357 544.718 371.354 548.459 369.014 548.119C346.612 543.357 325.214 532.134 310.503 513.428C287.768 485.539 283.087 438.944 310.169 411.735C316.187 406.293 324.546 402.212 332.904 402.212C335.579 402.212 339.591 401.532 342.266 402.212C356.308 402.892 369.682 410.034 378.375 421.258C386.065 430.781 390.412 442.345 391.749 453.909C391.749 455.949 388.74 456.63 388.071 454.589Z" fill="black"/>
<path d="M610.545 589.476C597.746 601.197 573.547 591.782 567.148 577.564C566.348 575.835 564.366 571.212 565.966 571.981C569.366 573.71 576.347 578.525 579.547 579.87C588.746 583.905 598.346 587.171 608.545 586.21C610.545 585.826 611.945 588.132 610.545 589.476Z" fill="black"/>
<ellipse cx="544.118" cy="439.543" rx="14.7059" ry="14.7059" fill="black"/>
<circle cx="538.063" cy="435.218" r="3.46021" fill="white"/>
<circle cx="668.301" cy="446.078" r="14.7059" fill="black"/>
<circle cx="662.245" cy="441.753" r="3.46021" fill="white"/>
</g>
<path d="M941.831 275.491C1140.2 657.517 791.504 1088.56 375.818 983.334C189.217 936.928 39.2167 775.164 8.17092 585.295C-27.1232 396.406 58.1709 193.464 217.648 86.6017C436.276 -63.7251 739.217 -13.7251 895.753 201.308C896.733 202.288 896.406 203.922 895.099 204.902C894.119 205.883 892.485 205.556 891.504 204.249C869.936 176.471 845.426 151.308 818.628 128.759C774.511 91.1768 722.877 61.7651 668.302 41.8304C390.524 -58.8232 85.6219 108.497 24.8376 399.02C-43.7899 724.51 233.008 1024.18 563.073 979.412C817.648 947.386 1006.86 712.419 985.949 456.863C981.374 395.098 965.034 333.987 937.91 277.778C937.256 276.798 937.909 275.491 938.89 274.837C939.87 274.183 941.178 274.51 941.831 275.491Z" fill="black"/>
<path d="M741.479 348.235C732.329 376.667 743.113 375.686 731.675 385.49C728.374 388.32 712.068 401.83 703.898 385.49C702.264 383.856 695.527 337.503 687.558 313.595C636.251 363.595 554.224 306.078 554.224 306.078C554.224 306.078 535.597 321.438 502.917 317.843C467.95 314.248 460.434 326.34 460.434 326.34C422.852 333.202 386.577 333.529 398.015 399.216C401.283 417.189 408.8 447.582 393.44 465.555C390.826 456.405 370.564 406.078 328.734 411.307C289.192 416.209 274.159 507.712 355.858 539.085C360.76 570.131 364.028 613.595 360.76 602.81C337.885 532.222 286.25 540.392 264.682 487.124C254.551 461.634 256.185 439.085 261.414 422.418C266.643 406.405 266.316 389.085 261.087 373.072C255.205 354.444 250.63 326.34 261.414 292.353C279.715 234.183 318.93 220.784 329.061 213.921C339.192 207.059 334.29 144.314 405.205 124.706C461.741 109.019 504.224 142.026 516.643 139.738C529.061 137.451 615.989 80.2613 682.983 134.183C747.688 186.47 723.505 248.235 723.505 248.235C723.505 248.235 763.701 279.281 741.479 348.235Z" fill="black"/>
<path d="M553.92 408.215C557.188 408.66 559.713 405.244 558.524 401.977C557.93 400.194 556.891 398.561 555.257 397.521C550.207 394.402 531.344 394.105 521.393 401.234C512.481 407.769 539.067 406.135 553.92 408.215Z" fill="black"/>
<path d="M661.848 413.818C657.981 413.818 655.617 410.059 657.551 406.955C658.625 405.321 660.129 403.85 662.278 403.033C668.938 400.582 686.771 402.052 694.721 410.386C701.811 417.74 679.681 413.655 661.848 413.818Z" fill="black"/>
<path d="M624.183 467.32L638.235 502.553C652.474 514.102 669.599 538.256 624.183 542.484" stroke="black" stroke-width="6" stroke-linecap="round" stroke-linejoin="round"/>
</g>
<defs>
<clipPath id="clip0_39_2913">
<rect width="1000" height="1000" fill="white"/>
</clipPath>
</defs>
</svg>
