<svg width="1000" height="1000" viewBox="0 0 1000 1000" fill="none" xmlns="http://www.w3.org/2000/svg">
<g clip-path="url(#clip0_39_2913)">
<mask id="mask0_39_2913" style="mask-type:alpha" maskUnits="userSpaceOnUse" x="0" y="0" width="1000" height="1000">
<circle cx="500" cy="500" r="500" fill="white"/>
</mask>
<g mask="url(#mask0_39_2913)">
<path d="M771.569 909.804C769.281 911.438 766.667 913.072 764.379 914.706C761.765 916.34 759.477 917.973 756.863 919.281C754.575 920.588 752.615 921.895 750.327 923.202C750 923.529 749.673 923.529 749.347 923.856C741.83 928.431 733.987 932.679 726.144 936.601C723.856 937.908 721.242 939.215 718.954 940.196C718.954 940.196 718.628 940.523 718.301 940.523C715.686 941.83 713.072 943.137 710.458 944.444C705.229 947.059 699.673 949.346 694.445 951.634C691.83 952.941 688.889 953.921 686.275 954.902C683.66 955.882 680.719 957.189 678.105 958.17C675.49 959.15 672.549 960.457 669.935 961.438C669.935 961.438 669.935 961.438 669.608 961.438C666.994 962.418 664.052 963.398 661.438 964.379C655.556 966.34 649.347 968.3 643.464 970.261C641.503 970.915 639.216 971.568 637.255 972.222C631.046 974.183 624.837 975.817 618.628 977.124C616.34 977.777 614.053 978.104 611.438 978.758C605.556 980.065 599.347 981.372 593.464 982.679C592.157 983.006 591.177 983.006 589.869 983.333C587.909 983.66 585.621 983.987 583.66 984.313C580.719 984.64 578.105 985.294 575.164 985.621C573.856 985.947 572.549 985.947 571.242 986.274C569.608 986.601 567.647 986.928 565.687 986.928C560.458 987.581 554.902 988.235 549.673 988.889C548.039 989.215 546.079 989.215 544.445 989.542H544.118C541.83 989.869 539.543 989.869 537.255 990.196C534.968 990.523 532.68 990.523 530.392 990.523C529.085 990.523 527.451 990.849 526.144 990.849C523.53 990.849 521.242 991.176 518.954 991.176C515.687 991.176 512.745 991.503 509.477 991.503C506.209 991.503 503.268 991.503 500 991.503C497.713 991.503 495.425 991.503 493.137 991.503C355.229 989.542 231.373 931.045 142.811 838.235C142.811 838.235 142.811 837.908 142.484 837.908C132.68 829.085 141.177 782.026 180.719 752.287C230.392 714.706 349.347 691.176 349.347 691.176C349.347 691.176 395.425 683.66 566.34 719.281C666.34 740.196 742.484 770.588 784.968 852.941C793.791 869.934 802.615 896.078 771.569 909.804Z" fill="white"/>
<path d="M567.321 715.686C630.066 728.431 697.059 742.157 748.693 783.66C766.013 797.713 777.451 818.301 786.928 838.235C791.504 848.039 796.079 858.17 799.674 868.954C801.634 876.144 804.576 884.314 802.942 892.811C802.615 895.098 800.654 898.039 799.02 899.673C791.504 907.19 783.334 911.765 775.164 917.647C727.125 950.98 671.896 974.51 614.706 986.928C487.255 1014.71 349.347 993.137 237.255 926.144C200 903.595 165.687 876.144 136.275 843.791C133.007 839.869 133.007 833.333 133.007 829.085C133.334 819.281 135.948 809.804 139.216 800.981C147.059 780.719 157.19 760.458 174.51 746.405C186.928 737.909 200.327 730.719 214.053 724.837C257.19 706.536 302.615 693.791 349.347 688.562C353.268 688.235 353.922 693.791 350 694.445C305.229 703.595 260.785 717.32 219.281 735.948C204.249 743.464 188.236 750 176.144 761.765C164.706 774.183 156.536 789.543 150 805.229C145.752 814.706 142.811 829.739 144.118 837.255C164.706 861.765 188.889 883.333 215.033 901.961C358.17 1001.96 575.491 1008.5 727.778 925.164C741.504 917.647 754.902 909.15 767.647 900.327C773.857 896.079 780.393 892.484 785.294 887.582C785.621 887.255 785.294 887.582 785.294 887.909C785.294 888.235 784.968 888.562 784.968 888.562C785.294 884.641 783.987 879.412 782.353 874.183C776.471 855.229 766.994 835.294 756.863 817.974C740.85 792.157 713.726 775.817 686.275 762.745C667.321 753.922 647.386 747.059 627.125 740.523C606.863 733.987 586.275 728.431 565.687 723.53C560.458 722.222 562.092 714.706 567.321 715.686Z" fill="black"/>
<path d="M406.863 681.373C392.157 665.033 359.477 620.916 359.477 620.916C354.575 705.883 317.32 692.811 174.837 743.465C163.399 749.674 136.892 833.333 133.987 846.405C127.451 875.817 119.608 920.261 104.575 973.856C72.5489 1088.56 49.0195 1213.27 49.0195 1213.27H875.49C875.49 1213.27 861.111 1156.86 831.699 1050.65C816.34 948.039 794.896 862.753 779.412 830.065C750 767.974 563.725 704.249 563.725 704.249C563.725 704.249 535.948 717.321 496.732 717.321C459.15 710.785 429.027 706 406.863 681.373Z" fill="black" stroke="black" stroke-width="5.1257" stroke-miterlimit="10" stroke-linecap="round" stroke-linejoin="round"/>
<path d="M588.675 794.358C581.653 829.39 536.182 850.476 459.618 818.846C380.044 786.196 345.606 708.311 336.913 685.183C384.056 595.394 351.29 533.154 351.29 533.154C459.952 523.631 554.906 652.873 554.906 652.873L569.617 716.813C570.954 722.255 573.629 727.017 577.641 730.418C584.662 743.002 593.021 771.911 588.675 794.358Z" fill="white"/>
<path d="M335.243 686.204C341.596 676.34 345.608 664.777 348.282 653.553C353.298 630.085 354.969 606.278 355.304 582.47V573.627C354.301 564.784 351.292 555.602 347.948 547.439C343.602 536.555 359.316 529.753 364.331 540.637C365 541.997 365 544.378 365 545.738C366.003 591.993 368.009 651.512 339.255 689.945C337.249 691.985 333.237 688.924 335.243 686.204Z" fill="black"/>
<path d="M579.985 729.397C591.352 751.164 598.039 778.372 591.018 802.52C585.668 819.526 570.289 832.11 553.571 836.871C514.787 847.415 469.985 830.749 435.548 812.043C393.086 787.895 361.658 747.422 341.597 703.208C340.26 699.807 344.94 697.086 346.946 700.487C353.968 714.772 361.992 728.716 371.019 741.3C380.047 754.225 390.411 766.128 402.113 776.672C436.216 807.962 482.356 827.348 528.496 827.348C575.972 825.988 594.027 800.48 582.994 753.544C581.322 746.062 578.647 738.239 574.969 731.777C572.963 729.056 577.978 725.996 579.985 729.397Z" fill="black"/>
<path d="M709.375 320.926C715.393 349.495 710.712 368.541 708.038 447.447C705.363 524.992 683.296 634.507 656.214 662.056C635.485 682.802 568.95 699.128 509.771 683.823C479.68 676 454.27 658.314 433.541 645.73C407.462 629.745 384.726 580.429 366.003 548.799C351.292 523.971 352.629 553.901 333.572 532.474C307.158 503.225 275.396 444.386 291.11 340.312C316.52 171.618 447.917 151.891 545.212 170.597C643.175 189.303 693.326 245.762 709.375 320.926Z" fill="white"/>
<path d="M350.29 562.404C342.6 549.479 332.57 537.916 323.542 525.672C310.169 506.966 300.138 485.539 293.451 463.432C264.363 368.881 282.084 245.081 370.016 189.303C449.925 137.607 605.061 156.313 669.923 227.056C694.331 252.564 710.045 285.895 716.732 320.586C717.066 322.626 718.069 326.368 718.403 328.408C718.738 330.109 719.741 332.149 719.406 334.19C718.738 341.673 717.4 349.155 716.732 356.637C711.716 401.872 713.054 448.127 707.37 493.361C702.355 540.977 695.668 588.592 681.625 634.507C677.279 648.451 668.92 661.035 657.887 670.218C633.145 691.305 600.714 698.447 569.62 699.808C507.432 702.869 444.241 680.422 408.132 627.024C406.794 624.984 409.469 622.603 411.141 624.644C441.232 657.634 482.022 678.721 525.487 683.483C573.632 689.264 646.185 684.843 667.249 632.466C691.656 558.322 704.361 479.757 705.698 401.872C705.698 382.826 704.695 363.78 704.695 344.393C704.695 342.013 705.03 336.571 705.03 334.19C705.03 334.19 705.03 333.85 705.03 334.19C705.03 334.53 705.03 334.53 705.03 334.19C702.355 327.388 701.352 319.906 699.346 313.103C691.99 284.874 678.616 258.006 659.559 236.579C596.368 164.475 455.609 146.45 376.703 200.527C314.181 242.701 297.464 323.647 293.117 395.07C289.439 448.467 304.819 500.844 344.606 537.576L360.32 554.241C367.007 561.723 355.64 570.566 350.29 562.404Z" fill="black"/>
<path d="M389.744 454.247C389.744 454.247 379.38 403.231 330.565 409.353C288.438 414.795 273.727 517.508 369.349 546.077" fill="white"/>
<path d="M365 501.523C357.31 497.102 351.96 489.62 351.626 480.437C351.96 473.634 352.963 465.812 351.291 459.01C350.288 452.548 343.602 450.847 338.586 451.187C333.237 452.208 329.893 459.01 328.89 464.452C328.89 464.792 328.556 465.812 328.556 466.152C328.222 467.853 325.547 467.853 324.878 466.152C320.532 452.888 330.228 438.263 344.27 439.964C363.997 441.324 366.671 462.411 362.994 478.396C360.987 485.198 363.662 491.32 367.34 497.102L368.009 498.122C369.68 500.163 367.006 502.884 365 501.523Z" fill="black"/>
<path d="M388.071 454.589C380.381 434.522 363.664 415.476 341.263 415.816C339.257 415.476 335.913 416.156 333.907 416.156C328.223 416.497 323.543 418.537 319.196 422.619C297.798 444.386 301.476 482.818 318.862 506.966C324.88 515.468 332.57 522.951 341.263 529.073C349.956 535.195 359.652 539.956 370.017 544.038C372.357 544.718 371.354 548.459 369.014 548.119C346.612 543.357 325.214 532.134 310.503 513.428C287.768 485.539 283.087 438.944 310.169 411.735C316.187 406.293 324.546 402.212 332.904 402.212C335.579 402.212 339.591 401.532 342.266 402.212C356.308 402.892 369.682 410.034 378.375 421.258C386.065 430.781 390.412 442.345 391.749 453.909C391.749 455.949 388.74 456.63 388.071 454.589Z" fill="black"/>
<path d="M610.545 589.476C597.746 601.197 573.547 591.782 567.148 577.564C566.348 575.835 564.366 571.212 565.966 571.981C569.366 573.71 576.347 578.525 579.547 579.87C588.746 583.905 598.346 587.171 608.545 586.21C610.545 585.826 611.945 588.132 610.545 589.476Z" fill="black"/>
<ellipse cx="544.118" cy="439.543" rx="14.7059" ry="14.7059" fill="black"/>
<circle cx="538.063" cy="435.218" r="3.46021" fill="white"/>
<circle cx="668.301" cy="446.078" r="14.7059" fill="black"/>
<circle cx="662.245" cy="441.753" r="3.46021" fill="white"/>
</g>
<path d="M941.831 275.491C1140.2 657.517 791.504 1088.56 375.818 983.334C189.217 936.928 39.2167 775.164 8.17092 585.295C-27.1232 396.406 58.1709 193.464 217.648 86.6017C436.276 -63.7251 739.217 -13.7251 895.753 201.308C896.733 202.288 896.406 203.922 895.099 204.902C894.119 205.883 892.485 205.556 891.504 204.249C869.936 176.471 845.426 151.308 818.628 128.759C774.511 91.1768 722.877 61.7651 668.302 41.8304C390.524 -58.8232 85.6219 108.497 24.8376 399.02C-43.7899 724.51 233.008 1024.18 563.073 979.412C817.648 947.386 1006.86 712.419 985.949 456.863C981.374 395.098 965.034 333.987 937.91 277.778C937.256 276.798 937.909 275.491 938.89 274.837C939.87 274.183 941.178 274.51 941.831 275.491Z" fill="black"/>
<path d="M732.822 251.731C756.025 167.744 661.907 115.13 636.744 153.039C618.443 180.489 547.855 159.248 440.665 157.287C333.476 154.999 293.932 210.228 292.625 271.339C292.625 271.339 248.834 304.345 251.776 391.927C254.717 482.777 282.821 524.28 295.893 552.058C308.965 579.835 356.351 558.594 356.351 558.594C313.867 514.476 255.621 434.411 335.109 409.901C364.194 406.306 380.207 438.659 387.397 452.385C390.338 456.306 420.404 479.509 421.057 368.398C421.384 292.581 463.54 259.901 547.527 290.62C591.318 306.633 664.521 351.077 696.22 328.202C701.449 343.234 705.044 383.103 700.796 403.365C713.541 391.6 743.606 362.515 743.606 328.202C745.566 315.456 732.495 281.143 725.306 271.339C728.247 265.784 730.861 258.921 732.822 251.731Z" fill="black"/>
<path d="M553.92 408.215C557.188 408.66 559.713 405.244 558.524 401.977C557.93 400.194 556.891 398.561 555.257 397.521C550.207 394.402 531.344 394.105 521.393 401.234C512.481 407.769 539.067 406.135 553.92 408.215Z" fill="black"/>
<path d="M661.848 413.818C657.981 413.818 655.617 410.059 657.551 406.955C658.625 405.321 660.129 403.85 662.278 403.033C668.938 400.582 686.771 402.052 694.721 410.386C701.811 417.74 679.681 413.655 661.848 413.818Z" fill="black"/>
<path d="M624.183 467.32L638.235 502.553C652.474 514.102 669.599 538.256 624.183 542.484" stroke="black" stroke-width="6" stroke-linecap="round" stroke-linejoin="round"/>
</g>
<defs>
<clipPath id="clip0_39_2913">
<rect width="1000" height="1000" fill="white"/>
</clipPath>
</defs>
</svg>
