<svg width="1000" height="1000" viewBox="0 0 1000 1000" fill="none" xmlns="http://www.w3.org/2000/svg">
<g clip-path="url(#clip0_39_2913)">
<mask id="mask0_39_2913" style="mask-type:alpha" maskUnits="userSpaceOnUse" x="0" y="0" width="1000" height="1000">
<circle cx="500" cy="500" r="500" fill="white"/>
</mask>
<g mask="url(#mask0_39_2913)">
<path d="M771.569 909.804C769.281 911.438 766.667 913.072 764.379 914.706C761.765 916.34 759.477 917.973 756.863 919.281C754.575 920.588 752.615 921.895 750.327 923.202C750 923.529 749.673 923.529 749.347 923.856C741.83 928.431 733.987 932.679 726.144 936.601C723.856 937.908 721.242 939.215 718.954 940.196C718.954 940.196 718.628 940.523 718.301 940.523C715.687 941.83 713.072 943.137 710.458 944.444C705.229 947.059 699.673 949.346 694.445 951.634C691.83 952.941 688.889 953.921 686.275 954.902C683.66 955.882 680.719 957.189 678.105 958.17C675.49 959.15 672.549 960.457 669.935 961.438C669.935 961.438 669.935 961.438 669.608 961.438C666.994 962.418 664.052 963.398 661.438 964.379C655.556 966.34 649.347 968.3 643.464 970.261C641.503 970.915 639.216 971.568 637.255 972.222C631.046 974.183 624.837 975.817 618.628 977.124C616.34 977.777 614.053 978.104 611.438 978.758C605.556 980.065 599.347 981.372 593.464 982.679C592.157 983.006 591.177 983.006 589.87 983.333C587.909 983.66 585.621 983.987 583.66 984.313C580.719 984.64 578.105 985.294 575.164 985.621C573.856 985.947 572.549 985.947 571.242 986.274C569.608 986.601 567.647 986.928 565.686 986.928C560.458 987.581 554.902 988.235 549.673 988.889C548.039 989.215 546.079 989.215 544.445 989.542H544.118C541.83 989.869 539.543 989.869 537.255 990.196C534.968 990.523 532.68 990.523 530.392 990.523C529.085 990.523 527.451 990.849 526.144 990.849C523.53 990.849 521.242 991.176 518.954 991.176C515.687 991.176 512.745 991.503 509.477 991.503C506.209 991.503 503.268 991.503 500 991.503C497.713 991.503 495.425 991.503 493.137 991.503C355.229 989.542 231.373 931.045 142.811 838.235C142.811 838.235 142.811 837.908 142.484 837.908C132.68 829.085 141.177 782.026 180.719 752.287C230.392 714.706 349.347 691.176 349.347 691.176C349.347 691.176 395.425 683.66 566.34 719.281C666.34 740.196 742.484 770.588 784.968 852.941C793.791 869.934 802.615 896.078 771.569 909.804Z" fill="white"/>
<path d="M567.321 715.686C630.066 728.431 697.059 742.157 748.693 783.66C766.013 797.713 777.451 818.301 786.928 838.235C791.504 848.039 796.079 858.17 799.674 868.954C801.634 876.144 804.576 884.314 802.942 892.811C802.615 895.098 800.654 898.039 799.02 899.673C791.504 907.19 783.334 911.765 775.164 917.647C727.125 950.98 671.896 974.51 614.706 986.928C487.255 1014.71 349.347 993.137 237.255 926.144C200 903.595 165.687 876.144 136.275 843.791C133.007 839.869 133.007 833.333 133.007 829.085C133.334 819.281 135.948 809.804 139.216 800.981C147.059 780.719 157.19 760.458 174.51 746.405C186.928 737.909 200.327 730.719 214.053 724.837C257.19 706.536 302.615 693.791 349.347 688.562C353.268 688.235 353.922 693.791 350 694.445C305.229 703.595 260.785 717.32 219.281 735.948C204.249 743.464 188.236 750 176.144 761.765C164.706 774.183 156.536 789.543 150 805.229C145.752 814.706 142.811 829.739 144.118 837.255C164.706 861.765 188.889 883.333 215.033 901.961C358.17 1001.96 575.491 1008.5 727.778 925.164C741.504 917.647 754.902 909.15 767.647 900.327C773.857 896.079 780.393 892.484 785.294 887.582C785.621 887.255 785.294 887.582 785.294 887.909C785.294 888.235 784.968 888.562 784.968 888.562C785.294 884.641 783.987 879.412 782.353 874.183C776.471 855.229 766.994 835.294 756.863 817.974C740.85 792.157 713.726 775.817 686.275 762.745C667.321 753.922 647.386 747.059 627.125 740.523C606.863 733.987 586.275 728.431 565.687 723.53C560.458 722.222 562.092 714.706 567.321 715.686Z" fill="black"/>
<path d="M655.228 1210.78C602.941 1217.32 418.399 1222.22 418.399 1222.22L343.137 780.637C343.137 780.637 459.15 679.738 566.993 709.15C674.836 738.562 707.516 1204.25 655.228 1210.78Z" fill="black" stroke="black" stroke-width="6" stroke-linecap="round"/>
<path d="M265.778 705.08L133.986 780.3C201.765 855.521 199.882 1106.26 190.469 1222.22H444.639V869.281L390.522 771.242C390.522 771.242 563.725 694.444 584.967 717.32C606.209 740.196 599.673 792.484 599.673 792.484L558.823 869.281L606.209 1215.69L764.705 1203.42C756.535 1142.16 758.429 893.131 764.705 780.3L614.086 686.274L265.778 705.08Z" fill="white" stroke="black" stroke-width="6" stroke-linecap="round"/>
<path d="M351.125 637.136C394.9 618.303 478.697 576.866 576.252 637.133C620.027 671.66 715.081 757.663 745.097 825.463C691.481 819.483 584.589 816.805 561.611 862.157L558.823 869.281C559.534 866.784 560.469 864.411 561.611 862.157L588.235 794.118L595.013 693.629L357.843 718.954L444.928 872.547C398.027 859.991 291.091 838.647 238.562 853.713L257.322 712.463L351.125 637.136Z" fill="white" stroke="black" stroke-width="6" stroke-linecap="round"/>
<path d="M635.021 992.634L681.645 1026.48L716.583 980.258" stroke="black" stroke-width="6" stroke-linecap="round"/>
<path d="M715.58 976.896L632.544 993.374C643.313 1072.99 647.343 1081.84 680.291 1075.92C737.405 1065.64 734.047 1062.14 715.58 976.896Z" stroke="black" stroke-width="6" stroke-linecap="round"/>
<path d="M111.11 1222.22C49.6724 871.895 101.851 784.314 135.62 784.314C200.979 793.464 218.409 1080.07 218.954 1222.22H111.11Z" fill="white" stroke="black" stroke-width="6" stroke-linecap="round"/>
<path d="M853.57 1200.44C844.77 834.959 800.652 787.584 764.705 781.045C758.169 838.235 753.266 1155.22 764.704 1202.61L853.57 1200.44Z" fill="white" stroke="black" stroke-width="6" stroke-linecap="round"/>
<path d="M589.698 794.336C582.666 829.371 537.128 850.46 460.45 818.827C380.758 786.173 346.269 708.28 337.563 685.15C384.776 595.352 351.962 533.105 351.962 533.105C460.784 523.581 555.879 652.836 555.879 652.836L570.612 716.783C571.951 722.226 574.63 726.988 578.648 730.389C585.68 742.974 594.051 771.887 589.698 794.336Z" fill="white"/>
<path d="M335.89 686.171C342.252 676.307 346.27 664.742 348.949 653.517C353.972 630.047 355.646 606.237 355.981 582.427V573.583C354.976 564.739 351.963 555.555 348.614 547.392C344.261 536.507 359.999 529.704 365.021 540.589C365.691 541.949 365.691 544.331 365.691 545.691C366.696 591.951 368.705 651.476 339.908 689.912C337.899 691.953 333.881 688.892 335.89 686.171Z" fill="black"/>
<path d="M580.994 729.368C592.379 751.137 599.076 778.349 592.044 802.499C586.687 819.506 571.284 832.092 554.542 836.854C515.7 847.398 470.832 830.731 436.343 812.023C393.819 787.873 362.344 747.396 342.253 703.177C340.914 699.775 345.602 697.054 347.611 700.456C354.643 714.742 362.679 728.688 371.719 741.273C380.76 754.199 391.14 766.104 402.859 776.648C437.013 807.941 483.221 827.33 529.429 827.33C576.976 825.969 595.058 800.458 584.008 753.518C582.334 746.035 579.655 738.212 575.972 731.749C573.963 729.028 578.985 725.967 580.994 729.368Z" fill="black"/>
<path d="M710.576 320.855C716.603 349.428 696.512 380.041 696.512 456.233C696.512 534.126 682.449 618.822 624.522 677.667C574.631 728.348 517.373 726.308 450.07 672.905C440.695 665.422 407.881 640.251 399.51 631.747C389.799 621.883 384.442 614.74 379.754 607.257C375.736 600.454 376.741 560.997 371.048 551.814C356.315 526.983 353.302 553.854 334.216 532.085C307.764 502.833 275.954 443.988 291.691 339.904C317.139 171.192 448.731 151.464 546.169 170.171C644.277 189.22 694.503 245.684 710.576 320.855Z" fill="white"/>
<path d="M350.958 562.358C343.257 549.432 333.547 537.867 324.506 525.962C315.465 513.377 308.099 500.111 302.072 485.825C267.918 401.81 272.941 291.943 333.547 221.193C375.067 172.892 440.695 156.906 500.967 160.307C561.238 164.049 623.853 179.695 668.386 223.914C694.169 249.425 710.576 283.439 717.943 318.814C720.287 330.039 718.612 342.284 715.934 352.829C708.232 382.421 700.866 410.653 700.196 441.266C700.531 486.846 699.192 533.446 686.133 577.324C676.757 606.577 665.708 635.829 648.296 661.34C630.215 687.191 603.093 707.94 571.953 714.062C509.337 726.988 450.741 686.851 409.22 643.312C407.546 641.271 409.89 638.89 411.899 640.251C435.673 658.619 460.116 675.626 486.568 687.191C562.912 722.906 626.197 689.912 659.681 615.08C687.807 560.657 695.843 501.812 693.499 440.926C693.499 425.62 694.169 410.313 696.178 395.007C698.187 372.897 705.554 350.788 705.219 329.019C699.526 293.644 683.454 259.629 659.346 233.438C602.088 171.872 492.261 153.844 415.248 181.736C324.506 214.39 300.063 307.25 295.04 396.027C291.692 449.09 307.094 501.132 346.605 537.527L362.343 554.194C367.7 561.678 356.316 570.521 350.958 562.358Z" fill="black"/>
<path d="M390.469 454.192C390.469 454.192 380.089 403.17 331.203 409.293C289.013 414.735 274.28 517.459 370.044 546.031" fill="white"/>
<path d="M365.69 501.471C357.989 497.049 352.632 489.566 352.297 480.382C352.632 473.579 353.636 465.756 351.962 458.953C350.958 452.49 344.261 450.79 339.238 451.13C333.881 452.15 330.532 458.953 329.528 464.395C329.528 464.736 329.193 465.756 329.193 466.096C328.858 467.797 326.179 467.797 325.51 466.096C321.157 452.831 330.867 438.204 344.93 439.905C364.686 441.266 367.365 462.355 363.681 478.341C361.672 485.144 364.351 491.267 368.034 497.049L368.704 498.07C370.378 500.111 367.7 502.832 365.69 501.471Z" fill="black"/>
<path d="M388.796 454.532C381.095 434.463 364.353 415.415 341.918 415.755C339.909 415.415 336.561 416.095 334.552 416.095C328.86 416.436 324.172 418.476 319.819 422.558C298.389 444.327 302.073 482.764 319.484 506.914C325.511 515.418 333.213 522.901 341.918 529.023C350.624 535.146 360.335 539.908 370.715 543.99C373.059 544.67 372.054 548.412 369.71 548.071C347.276 543.309 325.846 532.085 311.113 513.377C288.344 485.485 283.656 438.885 310.778 411.674C316.805 406.231 325.177 402.15 333.547 402.15C336.226 402.15 340.244 401.469 342.923 402.15C356.986 402.83 370.38 409.973 379.086 421.198C386.787 430.722 391.14 442.287 392.479 453.851C392.479 455.892 389.466 456.573 388.796 454.532Z" fill="black"/>
<path d="M610.545 589.476C597.746 601.197 573.547 591.782 567.148 577.564C566.348 575.835 564.366 571.212 565.966 571.981C569.366 573.71 576.347 578.525 579.547 579.87C588.746 583.905 598.346 587.171 608.545 586.21C610.545 585.826 611.945 588.132 610.545 589.476Z" fill="black"/>
<ellipse cx="544.118" cy="439.543" rx="14.7059" ry="14.7059" fill="black"/>
<circle cx="538.063" cy="435.218" r="3.46021" fill="white"/>
<circle cx="668.301" cy="446.078" r="14.7059" fill="black"/>
<circle cx="662.245" cy="441.753" r="3.46021" fill="white"/>
</g>
<path d="M941.831 275.491C1140.2 657.517 791.504 1088.56 375.818 983.334C189.217 936.928 39.2167 775.164 8.17092 585.294C-27.1232 396.406 58.1709 193.464 217.648 86.6017C436.276 -63.7251 739.217 -13.7251 895.753 201.308C896.733 202.288 896.406 203.922 895.099 204.902C894.119 205.883 892.485 205.556 891.504 204.249C869.936 176.471 845.426 151.308 818.628 128.759C774.511 91.1768 722.877 61.7651 668.302 41.8304C390.524 -58.8232 85.6219 108.497 24.8376 399.02C-43.7899 724.51 233.008 1024.18 563.073 979.412C817.648 947.386 1006.86 712.419 985.949 456.863C981.374 395.098 965.034 333.987 937.91 277.778C937.256 276.798 937.909 275.491 938.89 274.837C939.87 274.183 941.178 274.51 941.831 275.491Z" fill="black"/>
<path d="M576.797 259.444C621.861 272.913 640.522 360.751 707.516 413.039C725.817 397.352 733.66 367.287 735.294 354.215C743.741 299.306 704.2 247.905 678.007 222.558C601.307 148.333 524.183 152.987 446.187 161.405C368.191 169.823 290.849 243.603 281.529 346.727C269.581 478.939 296.695 552.974 272.863 620.321C253.798 674.198 198.479 731.161 173.202 752.908H400.689C419.466 706.607 436.77 690.027 428.104 661.405C419.438 632.783 359.477 545.752 359.477 545.752C320.261 521.242 308.823 516.34 303.921 465.686C303.921 388.889 377.451 407.223 392.156 455.882C428.104 393.791 471.455 336.533 496.732 303.562C507.564 290.934 531.733 245.975 576.797 259.444Z" fill="black" stroke="black" stroke-linejoin="round"/>
<path d="M553.92 408.215C557.188 408.66 559.713 405.244 558.524 401.977C557.93 400.194 556.891 398.561 555.257 397.521C550.207 394.402 531.344 394.105 521.393 401.234C512.481 407.769 539.067 406.135 553.92 408.215Z" fill="black"/>
<path d="M661.848 413.818C657.981 413.818 655.617 410.059 657.551 406.955C658.625 405.321 660.129 403.85 662.278 403.033C668.938 400.582 686.771 402.052 694.721 410.386C701.811 417.74 679.681 413.655 661.848 413.818Z" fill="black"/>
<path d="M616.523 471.468C615.101 481.151 614.663 503.274 624.288 514.297C636.319 528.076 646.415 537.206 618.414 544.018" stroke="black" stroke-width="6" stroke-linecap="round" stroke-linejoin="round"/>
<path d="M542.483 391.889C573.163 391.889 598.308 418.19 598.308 450.981C598.307 483.771 573.163 510.072 542.483 510.072C511.804 510.071 486.66 483.771 486.66 450.981C486.66 418.191 511.804 391.889 542.483 391.889Z" stroke="black" stroke-width="6"/>
<path d="M686.274 385.353C712.967 385.353 735.562 411.959 735.562 446.079C735.562 480.199 712.967 506.804 686.274 506.804C659.582 506.804 636.987 480.198 636.987 446.079C636.987 411.959 659.582 385.353 686.274 385.353Z" stroke="black" stroke-width="6"/>
<path d="M591.503 439.053C599.673 429.249 625.817 421.079 643.79 437.419C643.79 437.419 620.915 419.935 591.503 439.053Z" fill="black" stroke="black" stroke-width="6" stroke-linejoin="round"/>
<path d="M493.464 431.373L385.621 434.641V438.375L486.928 444.444L493.464 431.373Z" fill="black" stroke="black" stroke-width="6" stroke-linejoin="round"/>
</g>
<defs>
<clipPath id="clip0_39_2913">
<rect width="1000" height="1000" fill="white"/>
</clipPath>
</defs>
</svg>
